<svg width="512" height="512" viewBox="0 0 512 512" fill="none" xmlns="http://www.w3.org/2000/svg">
  <rect width="512" height="512" rx="112" fill="url(#bg_grad)"/>
  
  <!-- Vault / Shield -->
  <path d="M256 96L128 150V270C128 360 180 430 256 460C332 430 384 360 384 270V150L256 96Z" fill="url(#shield_grad)" stroke="white" stroke-width="24" stroke-linejoin="round"/>
  
  <!-- Padlock Shackle -->
  <path d="M216 260V220C216 195 236 180 256 180C276 180 296 195 296 220V260" stroke="white" stroke-width="24" stroke-linecap="round" stroke-linejoin="round"/>
  
  <!-- Padlock Body -->
  <rect x="196" y="260" width="120" height="90" rx="16" fill="white"/>
  
  <!-- Keyhole -->
  <circle cx="256" cy="295" r="14" fill="#1E1B4B"/>
  <path d="M256 295L248 330H264L256 295Z" fill="#1E1B4B"/>
  
  <defs>
    <linearGradient id="bg_grad" x1="0" y1="0" x2="512" y2="512" gradientUnits="userSpaceOnUse">
      <stop stop-color="#0F172A"/>
      <stop offset="1" stop-color="#1E1B4B"/>
    </linearGradient>
    <linearGradient id="shield_grad" x1="128" y1="96" x2="384" y2="460" gradientUnits="userSpaceOnUse">
      <stop stop-color="#4F46E5"/>
      <stop offset="1" stop-color="#7C3AED"/>
    </linearGradient>
  </defs>
</svg>